<?xml version="1.0" encoding="UTF-8" standalone="no"?>
<svg
   xmlns:dc="http://purl.org/dc/elements/1.1/"
   xmlns:cc="http://creativecommons.org/ns#"
   xmlns:rdf="http://www.w3.org/1999/02/22-rdf-syntax-ns#"
   xmlns:svg="http://www.w3.org/2000/svg"
   xmlns="http://www.w3.org/2000/svg"
   xmlns:sodipodi="http://sodipodi.sourceforge.net/DTD/sodipodi-0.dtd"
   xmlns:inkscape="http://www.inkscape.org/namespaces/inkscape"
   width="16"
   height="16"
   version="1.1"
   id="svg6"
   sodipodi:docname="hotspot.svg"
   inkscape:version="1.0.2 (e86c870879, 2021-01-15)">
  <metadata
     id="metadata12">
    <rdf:RDF>
      <cc:Work
         rdf:about="">
        <dc:format>image/svg+xml</dc:format>
        <dc:type
           rdf:resource="http://purl.org/dc/dcmitype/StillImage" />
        <dc:title />
      </cc:Work>
    </rdf:RDF>
  </metadata>
  <defs
     id="defs10" />
  <sodipodi:namedview
     pagecolor="#ffffff"
     bordercolor="#666666"
     borderopacity="1"
     objecttolerance="10"
     gridtolerance="10"
     guidetolerance="10"
     inkscape:pageopacity="0"
     inkscape:pageshadow="2"
     inkscape:window-width="1366"
     inkscape:window-height="738"
     id="namedview8"
     showgrid="false"
     inkscape:zoom="17"
     inkscape:cx="6.0244016"
     inkscape:cy="8.2395106"
     inkscape:window-x="0"
     inkscape:window-y="0"
     inkscape:window-maximized="1"
     inkscape:current-layer="svg6"
     inkscape:document-rotation="0" />
  <path
     d="m3.5 3c-1.939 0-3.5 1.561-3.5 3.5 0 1.7781 1.3123 3.2367 3.0254 3.4668-0.015974-0.15341-0.025391-0.30933-0.025391-0.4668 0-0.18435 0.013356-0.36622 0.035156-0.54492-1.1614-0.21669-2.0352-1.229-2.0352-2.4551 0-1.385 1.115-2.5 2.5-2.5h5c1.385 0 2.5 1.115 2.5 2.5s-1.115 2.5-2.5 2.5h-2.418c-0.052538 0.15565-0.082031 0.32313-0.082031 0.5 0 0.17687 0.029493 0.34435 0.082031 0.5h2.418c1.939 0 3.5-1.561 3.5-3.5s-1.561-3.5-3.5-3.5h-5z"
     fill="#363636"
     stroke-linecap="square"
     stroke-width="2"
     style="paint-order:fill markers stroke;fill:#ffffff"
     id="path2" />
  <path
     d="m12.5 13c1.939 0 3.5-1.561 3.5-3.5 0-1.7781-1.3123-3.2367-3.0254-3.4668 0.01597 0.15341 0.02539 0.30933 0.02539 0.4668 0 0.18435-0.01336 0.36622-0.03516 0.54492 1.1614 0.21669 2.0352 1.229 2.0352 2.4551 0 1.385-1.115 2.5-2.5 2.5h-5c-1.385 0-2.5-1.115-2.5-2.5s1.115-2.5 2.5-2.5h2.418c0.05254-0.15565 0.08203-0.32313 0.08203-0.5s-0.02949-0.34435-0.08203-0.5h-2.418c-1.939 0-3.5 1.561-3.5 3.5s1.561 3.5 3.5 3.5z"
     fill="#363636"
     stroke-linecap="square"
     stroke-width="2"
     style="paint-order:fill markers stroke;fill:#ffffff"
     id="path4" />
</svg>
