<?xml version="1.0" encoding="UTF-8"?>
<svg width="16" height="16" version="1.1" xmlns="http://www.w3.org/2000/svg" xmlns:cc="http://creativecommons.org/ns#" xmlns:dc="http://purl.org/dc/elements/1.1/" xmlns:rdf="http://www.w3.org/1999/02/22-rdf-syntax-ns#">
 <metadata>
  <rdf:RDF>
   <cc:Work rdf:about="">
    <dc:format>image/svg+xml</dc:format>
    <dc:type rdf:resource="http://purl.org/dc/dcmitype/StillImage"/>
    <dc:title/>
   </cc:Work>
  </rdf:RDF>
 </metadata>
 <path d="m8 2a0.8 0.8 0 0 0-0.7952 0.88 3.9904 3.9904 0 0 0-3.2048 3.92v3.6l-1.6 1.6v0.4h11.2v-0.4l-1.6-1.6v-3.6a3.9896 3.9896 0 0 0-3.2048-3.92 0.8 0.8 0 0 0-0.7952-0.88zm0 1.6a3.2 3.2 0 0 1 3.2 3.2v3.9376l0.8 0.8624h-8l0.8-0.8624v-3.9376a3.2 3.2 0 0 1 3.2-3.2zm-1.384 9.6a1.6 1.6 0 0 0 1.384 0.8 1.6 1.6 0 0 0 1.3832-0.8z" fill="#fff" stroke-linecap="round" stroke-width="2.4"/>
</svg>
